<?xml version="1.0" encoding="UTF-8" standalone="no"?>
<!-- Generator: Adobe Illustrator 16.0.0, SVG Export Plug-In . SVG Version: 6.00 Build 0)  -->

<svg
   xmlns:dc="http://purl.org/dc/elements/1.1/"
   xmlns:cc="http://creativecommons.org/ns#"
   xmlns:rdf="http://www.w3.org/1999/02/22-rdf-syntax-ns#"
   xmlns:svg="http://www.w3.org/2000/svg"
   xmlns="http://www.w3.org/2000/svg"
   xmlns:sodipodi="http://sodipodi.sourceforge.net/DTD/sodipodi-0.dtd"
   xmlns:inkscape="http://www.inkscape.org/namespaces/inkscape"
   sodipodi:docname="g.svg"
   inkscape:version="0.91 r13725"
   xml:space="preserve"
   enable-background="new 0 0 595.28 841.89"
   viewBox="0 0 595.28 841.89"
   height="841.89px"
   width="595.28px"
   y="0px"
   x="0px"
   id="Ebene_1"
   version="1.1"><metadata
     id="metadata101"><rdf:RDF><cc:Work
         rdf:about=""><dc:format>image/svg+xml</dc:format><dc:type
           rdf:resource="http://purl.org/dc/dcmitype/StillImage" /><dc:title></dc:title></cc:Work></rdf:RDF></metadata><defs
     id="defs99" /><sodipodi:namedview
     inkscape:current-layer="Ebene_1"
     inkscape:window-maximized="0"
     inkscape:window-y="0"
     inkscape:window-x="0"
     inkscape:cy="420.94501"
     inkscape:cx="297.64001"
     inkscape:zoom="0.28032165"
     showgrid="false"
     id="namedview97"
     inkscape:window-height="786"
     inkscape:window-width="981"
     inkscape:pageshadow="2"
     inkscape:pageopacity="0"
     guidetolerance="10"
     gridtolerance="10"
     objecttolerance="10"
     borderopacity="1"
     bordercolor="#666666"
     pagecolor="#ffffff" /><path
     style="fill:#a3a2a1"
     d="m 20,16.333 166.66701,0 0,50.667 L 20,67 Z"
     id="rect3" /><path
     style="fill:#dbd520"
     d="m 186.66701,16.333 108,0 0,129.33299 -108,0 z"
     id="rect5" /><path
     style="fill:#ffffff"
     d="m 294.83301,85.667 222.5,0 0,60 -222.5,0 z"
     id="rect7" /><path
     style="fill:#a56b31"
     d="m 294.66699,16.333 122.667,0 0,69.667 -122.667,0 z"
     id="rect9" /><path
     style="fill:#dbd520"
     d="m 417.33301,16.333 100,0 0,69.333 -100,0 z"
     id="rect11" /><path
     style="fill:#a56b31"
     d="m 113.333,67.333 73.333,0 0,193.33299 -73.333,0 z"
     id="rect13" /><path
     style="fill:#5c5c5b"
     d="m 20,67 93.333,0 0,108 L 20,175 Z"
     id="rect15" /><path
     style="fill:#a3a2a1"
     d="m 20,174 93.333,0 0,86.667 -93.333,0 z"
     id="rect17" /><path
     style="fill:#717070"
     d="m 186.66701,145.66701 201.33299,0 0,50.667 -201.33299,0 z"
     id="rect19" /><path
     style="fill:#a3a2a1"
     d="m 318.66699,196.33299 69.333,0 0,214.66701 -69.333,0 z"
     id="rect21" /><path
     style="fill:#3e492c"
     d="M 186.33299,197 319,197 l 0,63.451 -132.66701,0 z"
     id="rect23" /><path
     style="fill:#5c5c5b"
     d="m 388,145.66701 129.5,0 0,168.83299 -129.5,0 z"
     id="rect25" /><path
     style="fill:#717070"
     d="m 388.5,314.5 129,0 0,47.5 -129,0 z"
     id="rect27" /><path
     style="fill:#3e492c"
     d="m 388,361.5 65.5,0 0,49.5 -65.5,0 z"
     id="rect29" /><path
     style="fill:#a3a2a1"
     d="m 453.5,361.5 64,0 0,50 -64,0 z"
     id="rect31" /><path
     style="fill:#5c5c5b"
     d="m 20,260.66699 219,0 0,45.833 -219,0 z"
     id="rect33" /><path
     style="fill:#a56b31"
     d="m 239,260.66699 79,0 0,109.333 -79,0 z"
     id="rect35" /><path
     style="fill:#ffffff"
     d="m 20,306.5 219,0 0,63.5 -219,0 z"
     id="rect37" /><path
     style="fill:#5c5c5b"
     d="m 197,370 121.667,0 0,41 L 197,411 Z"
     id="rect39" /><path
     style="fill:#717070"
     d="m 93,370 104,0 0,121 -104,0 z"
     id="rect41" /><path
     style="fill:#dbd520"
     d="m 20,370 73,0 0,68 -73,0 z"
     id="rect43" /><path
     style="fill:#a56b31"
     d="m 197.33299,410.66699 321.66699,0 0,41.333 -321.66699,0 z"
     id="rect45" /><path
     style="fill:#dbd520"
     d="m 197,451 322.33301,0 0,40 L 197,491 Z"
     id="rect47" /><path
     style="fill:#3e492c"
     d="m 20,438 73,0 0,125 -73,0 z"
     id="rect49" /><path
     style="fill:#a3a2a1"
     d="m 93,490.66699 225,0 0,72.333 -225,0 z"
     id="rect51" /><path
     style="fill:#ffffff"
     d="m 318,492 135,0 0,70 -135,0 z"
     id="rect53" /><path
     style="fill:#a3a2a1"
     d="m 453,491 66.667,0 0,142.66701 -66.667,0 z"
     id="rect55" /><path
     style="fill:#717070"
     d="m 181,600 272,0 0,34 -272,0 z"
     id="rect57" /><path
     style="fill:#5c5c5b"
     d="m 280,562.33301 173,0 0,37.667 -173,0 z"
     id="rect59" /><path
     style="fill:#5c5c5b"
     d="m 108,562 172,0 0,38 -172,0 z"
     id="rect61" /><path
     style="fill:#a56b31"
     d="m 20,563 88,0 0,95 -88,0 z"
     id="rect63" /><path
     style="fill:#dbd520"
     d="m 108,600 73,0 0,34 -73,0 z"
     id="rect65" /><path
     style="fill:#3e492c"
     d="m 108,634 412,0 0,24 -412,0 z"
     id="rect67" /><path
     style="fill:#a3a2a1"
     d="m 20,658 242,0 0,54 -242,0 z"
     id="rect69" /><path
     style="fill:#dbd520"
     d="m 140,713 284,0 0,48 -284,0 z"
     id="rect71" /><path
     style="fill:#a56b31"
     d="m 416.33301,657.66602 104.667,0 0,34.334 -104.667,0 z"
     id="rect73" /><path
     style="fill:#5c5c5b"
     d="m 417,692 103,0 0,22 -103,0 z"
     id="rect75" /><path
     style="fill:#ffffff"
     d="m 425,713.33398 95,0 0,46.666 -95,0 z"
     id="rect77" /><path
     style="fill:#5c5c5b"
     d="m 262,658 153,0 0,13 -153,0 z"
     id="rect79" /><path
     style="fill:#5c5c5b"
     d="m 262.66699,689 153.33299,0 0,23 -153.33299,0 z"
     id="rect81" /><path
     style="fill:#ffffff"
     d="m 262,671 91,0 0,17.333 -91,0 z"
     id="rect83" /><path
     style="fill:#717070"
     d="m 350,670.66699 66,0 0,18.333 -66,0 z"
     id="rect85" /><path
     style="fill:#5c5c5b"
     d="m 20,712 79.667,0 0,49 L 20,761 Z"
     id="rect87" /><path
     style="fill:#ffffff"
     d="m 100,713.33301 40,0 0,80.667 -40,0 z"
     id="rect89" /><path
     style="fill:#a56b31"
     d="m 20,761 80,0 0,33 -80,0 z"
     id="rect91" /><path
     style="fill:#a3a2a1"
     d="m 140,761 298,0 0,34 -298,0 z"
     id="rect93" /><path
     style="fill:#5c5c5b"
     d="m 438,760.66699 82,0 0,34.667 -82,0 z"
     id="rect95" /></svg>